<svg xmlns="http://www.w3.org/2000/svg" data-name="Layer 1" viewBox="0 0 64 64" width="64" height="64"><path fill="#ced8ed" d="M5 9H59V19H5z"/><path fill="#85cbf8" d="M5 19H59V55H5z"/><path fill="#8d6c9f" d="M57,8H7a3,3,0,0,0-3,3V53a3,3,0,0,0,3,3H57a3,3,0,0,0,3-3V11A3,3,0,0,0,57,8ZM7,10H57a1,1,0,0,1,1,1v7H6V11A1,1,0,0,1,7,10ZM57,54H7a1,1,0,0,1-1-1V20H58V53A1,1,0,0,1,57,54Z"/><path fill="#8d6c9f" d="M19 16a1 1 0 0 0 1-1V13a1 1 0 0 0-2 0v2A1 1 0 0 0 19 16zM14 16a1 1 0 0 0 1-1V13a1 1 0 0 0-2 0v2A1 1 0 0 0 14 16zM9 16a1 1 0 0 0 1-1V13a1 1 0 0 0-2 0v2A1 1 0 0 0 9 16zM34 16a1 1 0 0 0 1-1V13a1 1 0 0 0-2 0v2A1 1 0 0 0 34 16zM39 16a1 1 0 0 0 1-1V13a1 1 0 0 0-2 0v2A1 1 0 0 0 39 16zM44 16a1 1 0 0 0 1-1V13a1 1 0 0 0-2 0v2A1 1 0 0 0 44 16zM49 16a1 1 0 0 0 1-1V13a1 1 0 0 0-2 0v2A1 1 0 0 0 49 16zM54 16a1 1 0 0 0 1-1V13a1 1 0 0 0-2 0v2A1 1 0 0 0 54 16zM24 16a1 1 0 0 0 1-1V13a1 1 0 0 0-2 0v2A1 1 0 0 0 24 16zM29 16a1 1 0 0 0 1-1V13a1 1 0 0 0-2 0v2A1 1 0 0 0 29 16z"/><path fill="#f9efde" d="M17 28.12H29a1 1 0 0 0 0-2H17a1 1 0 0 0 0 2zM26 33.12a1 1 0 0 0 1 1H39a1 1 0 0 0 0-2H27A1 1 0 0 0 26 33.12zM49 38.12H37a1 1 0 0 0 0 2H49a1 1 0 0 0 0-2zM29 46.12H17a1 1 0 0 0 0 2H29a1 1 0 0 0 0-2z"/></svg>