<svg xmlns="http://www.w3.org/2000/svg" viewBox="0 0 64 64" width="64" height="64"><path fill="#85cbf8" d="M53,57.055H11c-3.314,0-6-2.686-6-6v-42c0-3.314,2.686-6,6-6h42c3.314,0,6,2.686,6,6v42 C59,54.368,56.314,57.055,53,57.055z"/><path fill="#ace3ff" d="M56,10H8c-1.657,0-3-1.343-3-3v0c0-2.209,1.791-4,4-4h46c2.209,0,4,1.791,4,4v0 C59,8.657,57.657,10,56,10z"/><path fill="#8d6c9f" d="M53,2.055H11c-3.86,0-7,3.14-7,7v42C4,54.915,7.14,58,11,58h42c3.86,0,7-3.085,7-6.945v-42 C60,5.195,56.86,2.055,53,2.055z M58,51.055c0,2.757-2.243,5-5,5H11c-2.757,0-5-2.243-5-5v-42C6,6.298,8.243,4,11,4h42 c2.757,0,5,2.298,5,5.055V51.055z"/><path fill="#8d6c9f" d="M14 8.055c-.552 0-1 .448-1 1v2c0 .552.448 1 1 1s1-.448 1-1v-2C15 8.502 14.552 8.055 14 8.055zM9 8.055c-.552 0-1 .448-1 1v2c0 .552.448 1 1 1s1-.448 1-1v-2C10 8.502 9.552 8.055 9 8.055zM30 9.055c0-.552-.448-1-1-1s-1 .448-1 1v2c0 .552.448 1 1 1s1-.448 1-1V9.055zM34 12.055c.552 0 1-.448 1-1v-2c0-.552-.448-1-1-1s-1 .448-1 1v2C33 11.607 33.448 12.055 34 12.055zM39 12.055c.552 0 1-.448 1-1v-2c0-.552-.448-1-1-1s-1 .448-1 1v2C38 11.607 38.448 12.055 39 12.055zM44 12.055c.552 0 1-.448 1-1v-2c0-.552-.448-1-1-1s-1 .448-1 1v2C43 11.607 43.448 12.055 44 12.055zM49 8.055c-.552 0-1 .448-1 1v2c0 .552.448 1 1 1s1-.448 1-1v-2C50 8.502 49.552 8.055 49 8.055zM54 8.055c-.552 0-1 .448-1 1v2c0 .552.448 1 1 1s1-.448 1-1v-2C55 8.502 54.552 8.055 54 8.055zM19 12.055c.552 0 1-.448 1-1v-2c0-.552-.448-1-1-1s-1 .448-1 1v2C18 11.607 18.448 12.055 19 12.055zM24 12.055c.552 0 1-.448 1-1v-2c0-.552-.448-1-1-1s-1 .448-1 1v2C23 11.607 23.448 12.055 24 12.055z"/><path fill="#fff" d="M21.988 24.037l3.02-.019c.535 0 1.031.201 1.408.576S27 25.468 27 26c0 .552.448.999 1 .999s1-.449 1-1.001c0-1.067-.417-2.07-1.174-2.822-.751-.747-1.747-1.158-2.806-1.158-.008 0-.016 0-.024 0l-3.02.019c-2.192.013-3.976 1.808-3.976 4v10.018c0 2.206 1.794 4 4 4h3.02c2.194 0 3.98-1.786 3.98-3.98V33c0-.552-.448-1-1-1s-1 .448-1 1v3.075c0 1.092-.888 1.98-1.98 1.98H22c-1.103 0-2-.897-2-2V26.037C20 24.94 20.892 24.043 21.988 24.037zM45 28h-2.32l.306-1.835c.091-.545-.277-1.06-.822-1.151-.547-.09-1.06.278-1.151.822L40.653 28H36.68l.306-1.835c.091-.545-.277-1.06-.822-1.151-.548-.09-1.06.278-1.151.822L34.653 28H32c-.552 0-1 .448-1 1s.448 1 1 1h2.32l-.667 4H31c-.552 0-1 .448-1 1s.448 1 1 1h2.32l-.306 1.835c-.091.545.277 1.06.822 1.151C33.891 38.996 33.947 39 34.001 39c.48 0 .904-.347.985-.835L35.347 36h3.972l-.306 1.835c-.091.545.277 1.06.822 1.151C39.891 38.996 39.947 39 40.001 39c.48 0 .904-.347.985-.835L41.347 36H44c.552 0 1-.448 1-1s-.448-1-1-1h-2.32l.667-4H45c.552 0 1-.448 1-1S45.552 28 45 28zM39.653 34H35.68l.667-4h3.972L39.653 34z"/></svg>