<svg xmlns="http://www.w3.org/2000/svg" viewBox="0 0 64 64" width="64" height="64"><path fill="#85cbf8" d="M53,59.055H11c-3.314,0-6-2.686-6-6v-42c0-3.314,2.686-6,6-6h42c3.314,0,6,2.686,6,6v42 C59,56.368,56.314,59.055,53,59.055z"/><path fill="#ace3ff" d="M56,13H8c-1.657,0-3-1.343-3-3v0c0-2.209,1.791-4,4-4h46c2.209,0,4,1.791,4,4v0 C59,11.657,57.657,13,56,13z"/><path fill="#8d6c9f" d="M53,4.055H11c-3.86,0-7,3.141-7,7v42c0,3.859,3.14,7,7,7h42c3.86,0,7-3.141,7-7v-42 C60,7.195,56.86,4.055,53,4.055z M58,53.055c0,2.757-2.243,5-5,5H11c-2.757,0-5-2.243-5-5v-42c0-2.757,2.243-5,5-5h42 c2.757,0,5,2.243,5,5V53.055z"/><path fill="#8d6c9f" d="M15 13.055v-2c0-.553-.448-1-1-1s-1 .447-1 1v2c0 .553.448 1 1 1S15 13.607 15 13.055zM9 10.055c-.552 0-1 .447-1 1v2c0 .553.448 1 1 1s1-.447 1-1v-2C10 10.502 9.552 10.055 9 10.055zM29 14.055c.552 0 1-.447 1-1v-2c0-.553-.448-1-1-1s-1 .447-1 1v2C28 13.607 28.448 14.055 29 14.055zM34 14.055c.552 0 1-.447 1-1v-2c0-.553-.448-1-1-1s-1 .447-1 1v2C33 13.607 33.448 14.055 34 14.055zM39 10.055c-.552 0-1 .447-1 1v2c0 .553.448 1 1 1s1-.447 1-1v-2C40 10.502 39.552 10.055 39 10.055zM44 14.055c.552 0 1-.447 1-1v-2c0-.553-.448-1-1-1s-1 .447-1 1v2C43 13.607 43.448 14.055 44 14.055zM49 14.055c.552 0 1-.447 1-1v-2c0-.553-.448-1-1-1s-1 .447-1 1v2C48 13.607 48.448 14.055 49 14.055zM54 10.055c-.552 0-1 .447-1 1v2c0 .553.448 1 1 1s1-.447 1-1v-2C55 10.502 54.552 10.055 54 10.055zM19 14.055c.552 0 1-.447 1-1v-2c0-.553-.448-1-1-1s-1 .447-1 1v2C18 13.607 18.448 14.055 19 14.055zM24 10.055c-.552 0-1 .447-1 1v2c0 .553.448 1 1 1s1-.447 1-1v-2C25 10.502 24.552 10.055 24 10.055z"/><path fill="#fff" d="M20 24h-5c-.552 0-1 .447-1 1v16c0 .553.448 1 1 1s1-.447 1-1v-5h4c2.206 0 4-1.794 4-4v-4C24 25.794 22.206 24 20 24zM22 32c0 1.103-.897 2-2 2h-4v-8h4c1.103 0 2 .897 2 2V32zM37 24c-.552 0-1 .447-1 1v7h-6v-7c0-.553-.448-1-1-1s-1 .447-1 1v16c0 .553.448 1 1 1s1-.447 1-1v-7h6v7c0 .553.448 1 1 1s1-.447 1-1V25C38 24.447 37.552 24 37 24zM48 24h-5c-.552 0-1 .447-1 1 0 .01.005.018.005.027 0 .01-.005.018-.005.027v16c0 .553.448 1 1 1s1-.447 1-1V36h4c2.206 0 4-1.794 4-4v-4C52 25.794 50.206 24 48 24zM50 32c0 1.103-.897 2-2 2h-4v-8h4c1.103 0 2 .897 2 2V32z"/></svg>