<svg xmlns="http://www.w3.org/2000/svg" viewBox="0 0 64 64" width="64" height="64"><path fill="#c5e4fa" d="M1 13H55V53H1z"/><path fill="#e3f2ff" d="M44.107 53L55 42.107 55 14 52.214 14 13.214 53zM1.286 53L9.643 53 48.643 14 40.286 14zM1 49.714L36.714 14 32.75 14 1 45.75z"/><path fill="#acb7d0" d="M53,13H3c-1.105,0-2-0.895-2-2V9c0-1.105,0.895-2,2-2h50c1.105,0,2,0.895,2,2v2 C55,12.105,54.105,13,53,13z"/><path fill="#becde8" d="M61,39l-2.74,18.3c-0.15,0.98-0.99,1.7-1.98,1.7H45.72c-0.99,0-1.83-0.72-1.98-1.7L41,39H61z"/><path fill="#afc4e1" d="M61,39l-2.74,18.3c-0.15,0.98-0.99,1.7-1.98,1.7H53l2-20H61z"/><path fill="#cad8ed" d="M41,39l2.74,18.3c0.15,0.98,0.99,1.7,1.98,1.7H49l-2-20H41z"/><g><path fill="#8d6c9f" d="M16 46c-.553 0-1 .447-1 1v2c0 .553.447 1 1 1s1-.447 1-1v-2C17 46.447 16.553 46 16 46zM11 46c-.553 0-1 .447-1 1v2c0 .553.447 1 1 1s1-.447 1-1v-2C12 46.447 11.553 46 11 46zM6 46c-.553 0-1 .447-1 1v2c0 .553.447 1 1 1s1-.447 1-1v-2C7 46.447 6.553 46 6 46zM21 46c-.553 0-1 .447-1 1v2c0 .553.447 1 1 1s1-.447 1-1v-2C22 46.447 21.553 46 21 46zM26 46c-.553 0-1 .447-1 1v2c0 .553.447 1 1 1s1-.447 1-1v-2C27 46.447 26.553 46 26 46zM31 46c-.553 0-1 .447-1 1v2c0 .553.447 1 1 1s1-.447 1-1v-2C32 46.447 31.553 46 31 46zM36 46c-.553 0-1 .447-1 1v2c0 .553.447 1 1 1s1-.447 1-1v-2C37 46.447 36.553 46 36 46zM19 22h4c.553 0 1-.447 1-1s-.447-1-1-1h-4c-.553 0-1 .447-1 1S18.447 22 19 22zM27 22h16c.553 0 1-.447 1-1s-.447-1-1-1H27c-.553 0-1 .447-1 1S26.447 22 27 22zM19 30h24c.553 0 1-.447 1-1s-.447-1-1-1H19c-.553 0-1 .447-1 1S18.447 30 19 30zM36 37c0-.553-.447-1-1-1H19c-.553 0-1 .447-1 1s.447 1 1 1h16C35.553 38 36 37.553 36 37zM10.293 23.707C10.488 23.902 10.744 24 11 24s.512-.098.707-.293l4-4c.391-.391.391-1.023 0-1.414s-1.023-.391-1.414 0L11 21.586l-1.293-1.293c-.391-.391-1.023-.391-1.414 0s-.391 1.023 0 1.414L10.293 23.707zM10.293 31.707C10.488 31.902 10.744 32 11 32s.512-.098.707-.293l4-4c.391-.391.391-1.023 0-1.414s-1.023-.391-1.414 0L11 29.586l-1.293-1.293c-.391-.391-1.023-.391-1.414 0s-.391 1.023 0 1.414L10.293 31.707zM11 40c.256 0 .512-.098.707-.293l4-4c.391-.391.391-1.023 0-1.414s-1.023-.391-1.414 0L11 37.586l-1.293-1.293c-.391-.391-1.023-.391-1.414 0s-.391 1.023 0 1.414l2 2C10.488 39.902 10.744 40 11 40z"/><path fill="#8d6c9f" d="M62,38h-1h-4.219l-0.431-1.73c-0.07-0.29-0.19-0.57-0.35-0.82V9c0-1.65-1.35-3-3-3H3 C1.35,6,0,7.35,0,9v42c0,1.65,1.35,3,3,3h39.23l0.52,3.45c0.23,1.48,1.48,2.55,2.97,2.55h10.56c1.49,0,2.74-1.07,2.97-2.55 L61.863,40H62c0.553,0,1-0.447,1-1S62.553,38,62,38z M54.41,36.76L54.72,38H54h-6.72l0.31-1.24C47.7,36.31,48.1,36,48.56,36h4.88 c0.21,0,0.4,0.06,0.56,0.17C54.2,36.3,54.35,36.51,54.41,36.76z M2,9c0-0.55,0.45-1,1-1h50c0.55,0,1,0.45,1,1v3H2V9z M3,52 c-0.55,0-1-0.45-1-1V14h52v20.05C53.82,34.02,53.63,34,53.44,34h-4.88c-1.38,0-2.57,0.93-2.91,2.27L45.219,38H41h-1 c-0.553,0-1,0.447-1,1s0.447,1,1,1h0.137l1.793,12H3z M57.27,57.15c-0.08,0.48-0.5,0.85-0.99,0.85H45.72 c-0.49,0-0.91-0.37-0.99-0.85L44.258,54h0.002l-0.3-2h-0.002L42.16,40H46h8h2h3.84L57.27,57.15z"/></g></svg>