<svg xmlns="http://www.w3.org/2000/svg" viewBox="0 0 64 64" width="64" height="64"><path fill="#c5e4fa" d="M5 15H59V55H5z"/><path fill="#e3f2ff" d="M38.107 55L59 34.107 59 16 56.214 16 17.214 55zM5.286 55L13.643 55 52.643 16 44.286 16zM5 51.714L40.714 16 36.75 16 5 47.75z"/><path fill="#acb7d0" d="M57,19H7c-1.105,0-2-0.895-2-2v-6c0-1.105,0.895-2,2-2h50c1.105,0,2,0.895,2,2v6 C59,18.105,58.105,19,57,19z"/><path fill="#fff8f8" d="M12.502 24.996L13.74 27.26 16.004 28.498 13.74 29.736 12.502 32 11.264 29.736 9 28.498 11.264 27.26zM50.419 24.162L51.274 25.726 52.838 26.581 51.274 27.436 50.419 29 49.564 27.436 48 26.581 49.564 25.726zM34.648 46.704L35.231 47.769 36.296 48.352 35.231 48.935 34.648 50 34.065 48.935 33 48.352 34.065 47.769z"/><g><path fill="#8d6c9f" d="M55,18h-4c-0.552,0-1,0.447-1,1s0.448,1,1,1h4c0.552,0,1-0.447,1-1S55.552,18,55,18z"/><path fill="#8d6c9f" d="M57,8H7c-1.654,0-3,1.346-3,3v42c0,1.654,1.346,3,3,3h50c1.654,0,3-1.346,3-3V11 C60,9.346,58.654,8,57,8z M58,53c0,0.552-0.449,1-1,1H7c-0.551,0-1-0.448-1-1V20h41c0.552,0,1-0.447,1-1s-0.448-1-1-1H6v-7 c0-0.552,0.449-1,1-1h50c0.551,0,1,0.448,1,1V53z"/><path fill="#8d6c9f" d="M20 12c-.552 0-1 .447-1 1v2c0 .553.448 1 1 1s1-.447 1-1v-2C21 12.447 20.552 12 20 12zM15 12c-.552 0-1 .447-1 1v2c0 .553.448 1 1 1s1-.447 1-1v-2C16 12.447 15.552 12 15 12zM10 12c-.552 0-1 .447-1 1v2c0 .553.448 1 1 1s1-.447 1-1v-2C11 12.447 10.552 12 10 12zM35 12c-.552 0-1 .447-1 1v2c0 .553.448 1 1 1s1-.447 1-1v-2C36 12.447 35.552 12 35 12zM40 12c-.552 0-1 .447-1 1v2c0 .553.448 1 1 1s1-.447 1-1v-2C41 12.447 40.552 12 40 12zM45 12c-.552 0-1 .447-1 1v2c0 .553.448 1 1 1s1-.447 1-1v-2C46 12.447 45.552 12 45 12zM51 15v-2c0-.553-.448-1-1-1s-1 .447-1 1v2c0 .553.448 1 1 1S51 15.553 51 15zM55 12c-.552 0-1 .447-1 1v2c0 .553.448 1 1 1s1-.447 1-1v-2C56 12.447 55.552 12 55 12zM25 12c-.552 0-1 .447-1 1v2c0 .553.448 1 1 1s1-.447 1-1v-2C26 12.447 25.552 12 25 12zM30 12c-.552 0-1 .447-1 1v2c0 .553.448 1 1 1s1-.447 1-1v-2C31 12.447 30.552 12 30 12zM33.25 36.333L36.8 31.6c.332-.441.242-1.068-.2-1.399-.442-.331-1.069-.242-1.4.2L32 34.667 28.8 30.4c-.331-.442-.957-.531-1.4-.2-.442.331-.531.958-.2 1.399l3.55 4.734L26.2 42.4c-.332.441-.242 1.068.2 1.399.18.135.391.2.599.2.304 0 .604-.138.801-.4l4.2-5.6 4.2 5.6c.196.263.497.4.801.4.208 0 .419-.065.599-.2.442-.331.531-.958.2-1.399L33.25 36.333zM20 36.998c0-3.705.531-7.219 1.458-9.641.197-.516-.061-1.094-.577-1.291-.514-.196-1.094.061-1.292.576C18.579 29.284 18 33.059 18 36.998c0 3.942.58 7.718 1.59 10.359C19.743 47.756 20.122 48 20.524 48c.119 0 .24-.021.357-.066.516-.197.774-.775.577-1.291C20.532 44.221 20 40.705 20 36.998zM43.168 26.066c-.516.197-.774.775-.577 1.291.926 2.422 1.458 5.936 1.458 9.641 0 3.708-.532 7.223-1.459 9.645-.197.516.061 1.094.577 1.291C43.285 47.979 43.405 48 43.524 48c.402 0 .781-.244.934-.643 1.011-2.641 1.591-6.417 1.591-10.359 0-3.939-.579-7.714-1.589-10.355C44.262 26.126 43.683 25.869 43.168 26.066z"/></g></svg>